<svg width="32" height="32" viewBox="0 0 32 32" fill="none" xmlns="http://www.w3.org/2000/svg">
<path d="M8.46647 26.4102H23.4972C24.9332 26.4102 25.9244 24.9722 25.4134 23.6301C24.2021 20.4494 21.1523 18.3473 17.7487 18.3473H14.1657C10.7482 18.3473 7.70253 20.5033 6.56673 23.7265C6.10499 25.0369 7.07717 26.4102 8.46647 26.4102Z" fill="black"/>
<path d="M16.0465 13.7291C18.2942 13.7291 20.1162 11.9071 20.1162 9.65945C20.1162 7.41184 18.2942 5.58978 16.0465 5.58978C13.7989 5.58978 11.9769 7.41184 11.9769 9.65945C11.9769 11.9071 13.7989 13.7291 16.0465 13.7291Z" fill="black"/>
<path d="M8.46647 26.4102H23.4972C24.9332 26.4102 25.9244 24.9722 25.4134 23.6301C24.2021 20.4494 21.1523 18.3473 17.7487 18.3473H14.1657C10.7482 18.3473 7.70253 20.5033 6.56673 23.7265C6.10499 25.0369 7.07717 26.4102 8.46647 26.4102Z" stroke="black" stroke-width="2"/>
<path d="M16.0465 13.7291C18.2942 13.7291 20.1162 11.9071 20.1162 9.65945C20.1162 7.41184 18.2942 5.58978 16.0465 5.58978C13.7989 5.58978 11.9769 7.41184 11.9769 9.65945C11.9769 11.9071 13.7989 13.7291 16.0465 13.7291Z" stroke="black" stroke-width="2"/>
</svg>
